<svg xmlns="http://www.w3.org/2000/svg" width="119.94mm" height="15.52mm" viewBox="0 0 340 44.01"><defs><style>.a{fill:#fff;}</style></defs><title>cru</title><path class="a" d="M10,20.56A9.91,9.91,0,0,0,18,17L15.27,14.2a7,7,0,0,1-5.13,2.33c-3.35,0-5.66-2.84-5.66-6.25v-.07C4.48,6.81,6.84,4,10.14,4a7.06,7.06,0,0,1,5,2.25l2.73-3.21A9.91,9.91,0,0,0,10.17,0,10,10,0,0,0,0,10.28v.05A10,10,0,0,0,10,20.56Zm17.29-4.81h8.26l1.79,4.45h4.48L33.44.19H29.49l-8.37,20H25.5ZM31.4,5.45,34,11.89H28.82Zm19.07,8.8h3.26c4.37,0,7.89-2.39,7.89-7v0c0-4.06-2.8-6.87-7.46-6.87h-8V20.2h4.29Zm0-10H53.8c2.15,0,3.48,1,3.48,3v.07c0,1.69-1.27,3-3.41,3H50.48ZM70.68.34h-4.3V20.2h4.3ZM81.46,20.2h4.29V4.37h5.94v-4H75.54v4h5.92Zm16.9-4.45h8.23l1.79,4.45h4.48L104.5.19h-4l-8.34,20h4.37Zm4.1-10.3,2.6,6.44h-5.2Zm28.8,10.78h-9.72V.34h-4.29V20.2h14Zm18.86-2.37h3.38l4.18,6.36h5l-4.77-7.1A6.15,6.15,0,0,0,162.11,7V6.89a6.23,6.23,0,0,0-1.68-4.53,7.68,7.68,0,0,0-5.68-2h-8.92V20.22h4.29Zm0-9.57h4.27c2.08,0,3.37,1,3.37,2.84v0c0,1.68-1.2,2.81-3.3,2.81v0h-4.34Zm32.07,12H171.61V12.15h9.19V8.26h-9.19v-4h10.44V.34h-14.7V20.2h14.84Zm14.59,4.22a12.6,12.6,0,0,0,8.33-3.14V8.76h-8.48v3.78H201v2.84a6.77,6.77,0,0,1-4,1.19c-3.45,0-5.91-2.66-5.91-6.29v-.07C191,6.84,193.48,4,196.6,4a7.12,7.12,0,0,1,5.1,2l2.71-3.32A10.6,10.6,0,0,0,196.75,0a10.11,10.11,0,0,0-10.22,10.28v.05A9.85,9.85,0,0,0,196.78,20.54ZM215.12.34h-4.3V20.2h4.3Zm15.71,20.22a10.17,10.17,0,0,0,10.38-10.28v-.07A10.07,10.07,0,0,0,230.89,0,10.18,10.18,0,0,0,220.5,10.28v.05A10.1,10.1,0,0,0,230.83,20.56ZM225,10.21A5.88,5.88,0,0,1,230.84,4a6,6,0,0,1,5.91,6.25v.05A5.88,5.88,0,1,1,225,10.28Zm25.67-2.64,9.44,12.63h3.64V.34h-4.23V12.57L250.38.34h-3.94V20.2h4.23Zm37.26,13c5.24,0,8.55-3,8.55-9V.34h-4.29V11.72c0,3.14-1.6,4.76-4.21,4.76s-4.22-1.68-4.22-4.91V.34h-4.29V11.68C279.47,17.54,282.69,20.53,287.93,20.53Zm21.31-3.89a8.9,8.9,0,0,1-5.82-2.42l-2.54,3.1a12.55,12.55,0,0,0,8.29,3.21c4.21,0,7.15-2.23,7.15-6.17V14.3c0-3.46-2.21-4.91-6.17-6-3.37-.88-4.22-1.3-4.22-2.61V5.66c0-1,.86-1.72,2.51-1.72a8.93,8.93,0,0,1,5.06,1.95l2.24-3.29A11.1,11.1,0,0,0,308.5.06c-4,0-6.82,2.39-6.82,6v.07c0,3.93,2.53,5.05,6.46,6.06,3.26.84,3.92,1.41,3.92,2.52v.07C312.06,15.93,311,16.64,309.24,16.64Zm16.24-.89h8.25l1.79,4.45H340l-8.35-20h-4l-8.37,20h4.37Zm4.13-10.3,2.6,6.44H327ZM.1,24.33v2.36H340V24.33Zm11,14.09L8.88,31.56H7L4.8,38.42l-2-6.82H.43L3.8,41.75H5.7l2.22-6.6,2.23,6.6h1.9L15.42,31.6H13.14Zm9.12-6.89L16,41.68h2.22l.9-2.26H23.3l.9,2.26h2.28L22.23,31.53Zm-.35,5.92,1.32-3.27,1.31,3.27Zm13.07-1.8c-1.71-.46-2.14-.67-2.14-1.33v0c0-.48.45-.87,1.27-.87a4.66,4.66,0,0,1,2.56,1l1.13-1.68a5.78,5.78,0,0,0-3.68-1.27c-2,0-3.46,1.21-3.46,3v0c0,2,1.28,2.57,3.27,3.09,1.67.41,2,.7,2,1.27v0c0,.6-.54.95-1.43.95a4.52,4.52,0,0,1-2.94-1.22l-1.28,1.56a6.21,6.21,0,0,0,4.21,1.62c2.12,0,3.62-1.13,3.62-3.13v0C36.07,36.92,35,36.18,32.94,35.65Zm12.26-.07h-4v-4H39V41.68h2.17v-4h4v4h2.17V31.6H45.2Zm5.71,6.1h2.17V31.6H50.91Zm12.37-3.87L58.64,31.6h-2V41.68H58.8v-6.4l4.78,6.4h1.85V31.6H63.28Zm10.25,0h2.18v1.43a3.33,3.33,0,0,1-2,.6,3,3,0,0,1-3-3.19v0a3,3,0,0,1,2.83-3.15,3.62,3.62,0,0,1,2.58,1l1.38-1.67a5.3,5.3,0,0,0-3.88-1.39,5.12,5.12,0,0,0-5.18,5.21v0a5,5,0,0,0,5.18,5.2,6.41,6.41,0,0,0,4.23-1.6V35.89H73.53Zm6.6-4.16h3v8h2.18v-8h3v-2h-8.2Zm15.34-2.23a5.16,5.16,0,0,0-5.27,5.21v0a5.11,5.11,0,0,0,5.24,5.18,5.16,5.16,0,0,0,5.28-5.21v0A5.12,5.12,0,0,0,95.47,31.42Zm3,5.24a3,3,0,0,1-3,3.15,3,3,0,0,1-3-3.16v0a3,3,0,0,1,3-3.15,3,3,0,0,1,3,3.16Zm11.92,1.15-4.64-6.21h-2V41.68h2.15v-6.4l4.8,6.4h1.85V31.6h-2.15Zm5.26,3.87h.87c.08.82-.4,1.33-1.38,1.42l.19.91c1.68,0,2.62-.79,2.62-2.7V39.37h-2.3ZM130.19,31.6h-3.87V41.68h3.87a5,5,0,0,0,5.26-5v0A5,5,0,0,0,130.19,31.6Zm3,5.08a2.84,2.84,0,0,1-3,3h-1.68V33.6h1.68a2.86,2.86,0,0,1,3,3Zm10,3.13a3,3,0,0,1-2.87-3.16v0a3,3,0,0,1,2.87-3.15,3.57,3.57,0,0,1,2.53,1.13L147.07,33A5.31,5.31,0,0,0,138,36.63v0a5.18,5.18,0,0,0,9.12,3.39l-1.38-1.42A3.56,3.56,0,0,1,143.16,39.81Zm22.31-4-2.6-4.26H160.5V41.68h2.13V35.15l2.76,4.26h.06l2.79-4.31v6.58h2.17V31.6h-2.34Zm11.78-4.33L173,41.68h2.22l.9-2.26h4.19l.9,2.26h2.28l-4.25-10.15Zm-.35,5.92,1.32-3.27,1.31,3.27ZM194.34,35v0a3.2,3.2,0,0,0-.86-2.31,3.89,3.89,0,0,0-2.88-1h-4.53V41.68h2.19V38.45H190l2.12,3.23h2.55l-2.42-3.6A3.13,3.13,0,0,0,194.34,35Zm-2.22.12c0,.84-.6,1.42-1.66,1.42h-2.22V33.6h2.17c1.06,0,1.71.48,1.71,1.43Zm8.78.58-2.36-4H196l3.8,6.1h0v4H202v-4l3.8-6.06H203.3Zm9.45-4h-2.19V41.68h7.11v-2h-4.92Zm11-.07-4.23,10.15h2.22l.9-2.26h4.18l.91,2.26h2.28l-4.25-10.15ZM221,37.45l1.31-3.27,1.32,3.27Zm15.82.36-4.64-6.21h-2V41.68h2.16v-6.4l4.78,6.4H239V31.6h-2.15Zm9.44-6.21h-3.87V41.68h3.87a5,5,0,0,0,5.26-5v0A5,5,0,0,0,246.3,31.6Zm3,5.08a2.85,2.85,0,0,1-3,3H244.6V33.6h1.68a2.86,2.86,0,0,1,3,3Zm20,2-2.59-7.1h-2.4l4,10.15h1.91l4-10.15h-2.34Zm7.61,3h2.17V31.6h-2.17Zm14-6.73v0a3.23,3.23,0,0,0-.85-2.31,3.91,3.91,0,0,0-2.88-1h-4.52V41.68h2.17V38.45h1.71l2.13,3.23h2.55l-2.43-3.6A3.12,3.12,0,0,0,290.87,35Zm-2.23.12c0,.84-.6,1.42-1.66,1.42h-2.22V33.6h2.17c1.06,0,1.71.48,1.71,1.43Zm9.92,2.74h2.18v1.43a3.33,3.33,0,0,1-2,.6,3,3,0,0,1-3-3.19v0a3,3,0,0,1,2.83-3.15,3.62,3.62,0,0,1,2.58,1l1.38-1.67a5.3,5.3,0,0,0-3.88-1.39,5.12,5.12,0,0,0-5.18,5.21v0a5,5,0,0,0,5.18,5.2,6.43,6.43,0,0,0,4.23-1.6V35.89h-4.29Zm7.56,3.87h2.17V31.6h-2.17Zm12.36-3.87-4.64-6.21h-2V41.68H314v-6.4l4.78,6.4h1.85V31.6h-2.15Zm5.67,3.87h2.17V31.6h-2.17Zm9.1-10.15L329,41.68h2.22l.9-2.26h4.18l.91,2.26h2.28l-4.25-10.15Zm-.33,5.92,1.31-3.27,1.32,3.27Zm-181,.73h2.31V35.84H152Zm105.25,0h2.31V35.84h-2.31Z" transform="translate(0)"/></svg>