<svg xmlns="http://www.w3.org/2000/svg" width="94.54mm" height="24.68mm" viewBox="0 0 268 69.97"><defs><style>.a{fill:#fff;}</style></defs><title>usa</title><path class="a" d="M18,20.76a1.77,1.77,0,1,0,1.73,1.77A1.74,1.74,0,0,0,18,20.76Zm0,16.61a1.77,1.77,0,1,0,1.73,1.77A1.75,1.75,0,0,0,18,37.37Zm-4.06,8.31a1.77,1.77,0,1,0,1.73,1.76A1.74,1.74,0,0,0,13.93,45.68ZM18,54a1.77,1.77,0,1,0,1.73,1.77A1.75,1.75,0,0,0,18,54ZM22.06,8.31a1.77,1.77,0,1,0,1.73,1.76A1.75,1.75,0,0,0,22.06,8.31Zm0,41.52a1.77,1.77,0,1,0,1.73,1.77A1.75,1.75,0,0,0,22.06,49.83Zm0,12.46a1.77,1.77,0,1,0,1.73,1.76A1.75,1.75,0,0,0,22.06,62.29ZM30.19,54a1.77,1.77,0,1,0,1.73,1.77A1.76,1.76,0,0,0,30.19,54Zm4.07,4.16A1.77,1.77,0,1,0,36,59.9,1.74,1.74,0,0,0,34.26,58.14Zm8.13,0a1.77,1.77,0,1,0,1.73,1.76A1.75,1.75,0,0,0,42.39,58.14ZM50.52,8.31a1.77,1.77,0,1,0,1.73,1.76A1.75,1.75,0,0,0,50.52,8.31ZM46.46,24.92a1.77,1.77,0,1,0,1.73,1.76A1.74,1.74,0,0,0,46.46,24.92Zm0,16.61a1.77,1.77,0,1,0,1.73,1.76A1.74,1.74,0,0,0,46.46,41.53Zm0,8.3a1.77,1.77,0,1,0,1.73,1.77A1.75,1.75,0,0,0,46.46,49.83Zm4.06-33.22a1.77,1.77,0,1,0,1.73,1.77A1.75,1.75,0,0,0,50.52,16.61Zm0,12.46a1.77,1.77,0,1,0,1.73,1.76A1.75,1.75,0,0,0,50.52,29.07Zm0,24.91a1.77,1.77,0,1,0,1.73,1.77A1.76,1.76,0,0,0,50.52,54Zm8.14-33.22a1.77,1.77,0,1,0,1.72,1.77A1.75,1.75,0,0,0,58.66,20.76ZM54.59,33.22A1.77,1.77,0,1,0,56.32,35,1.75,1.75,0,0,0,54.59,33.22Zm0,8.31a1.77,1.77,0,1,0,1.73,1.76A1.75,1.75,0,0,0,54.59,41.53ZM26.13,0A1.75,1.75,0,0,0,24.4,1.77a1.73,1.73,0,1,0,3.45,0A1.74,1.74,0,0,0,26.13,0ZM62.72,12.46a1.77,1.77,0,1,0,1.73,1.76A1.75,1.75,0,0,0,62.72,12.46Zm8.13,8.3a1.77,1.77,0,1,0,1.73,1.77A1.74,1.74,0,0,0,70.85,20.76Zm0,29.07a1.77,1.77,0,1,0,1.73,1.77A1.74,1.74,0,0,0,70.85,49.83ZM74.92,8.31a1.77,1.77,0,1,0,1.73,1.76A1.75,1.75,0,0,0,74.92,8.31Zm0,16.61a1.77,1.77,0,1,0,1.73,1.76A1.75,1.75,0,0,0,74.92,24.92ZM79,12.46a1.77,1.77,0,1,0,1.73,1.76A1.74,1.74,0,0,0,79,12.46ZM79,54a1.77,1.77,0,1,0,1.73,1.77A1.75,1.75,0,0,0,79,54Zm4.06-20.76A1.77,1.77,0,1,0,84.78,35,1.74,1.74,0,0,0,83.05,33.22Zm0,24.92a1.77,1.77,0,1,0,1.73,1.76A1.74,1.74,0,0,0,83.05,58.14Zm0,8.3a1.77,1.77,0,1,0,1.73,1.77A1.74,1.74,0,0,0,83.05,66.44ZM87.12,54a1.77,1.77,0,1,0,1.73,1.77A1.76,1.76,0,0,0,87.12,54Zm4.07-41.52a1.77,1.77,0,1,0,1.72,1.76A1.74,1.74,0,0,0,91.19,12.46Zm0,24.91a1.77,1.77,0,1,0,1.72,1.77A1.75,1.75,0,0,0,91.19,37.37Zm4.06,20.77A1.77,1.77,0,1,0,97,59.9,1.75,1.75,0,0,0,95.25,58.14Zm4.07-45.68a1.77,1.77,0,1,0,1.73,1.76A1.74,1.74,0,0,0,99.32,12.46Zm0,29.07a1.77,1.77,0,1,0,1.73,1.76A1.74,1.74,0,0,0,99.32,41.53Zm4.06-24.92a1.77,1.77,0,1,0,1.73,1.77A1.74,1.74,0,0,0,103.38,16.61Zm0,20.76a1.77,1.77,0,1,0,1.73,1.77A1.75,1.75,0,0,0,103.38,37.37Zm0,12.46a1.77,1.77,0,1,0,1.73,1.77A1.74,1.74,0,0,0,103.38,49.83Zm8.14-12.46a1.77,1.77,0,1,0,1.73,1.77A1.75,1.75,0,0,0,111.52,37.37ZM115.58,54a1.77,1.77,0,1,0,1.73,1.77A1.76,1.76,0,0,0,115.58,54Zm4.07,8.31a1.77,1.77,0,1,0,1.73,1.76A1.74,1.74,0,0,0,119.65,62.29Zm4.06-12.46a1.77,1.77,0,1,0,1.73,1.77A1.74,1.74,0,0,0,123.71,49.83Zm0-24.91a1.77,1.77,0,1,0,1.73,1.76A1.74,1.74,0,0,0,123.71,24.92Zm4.07,4.15a1.77,1.77,0,1,0,1.73,1.76A1.75,1.75,0,0,0,127.78,29.07Zm4.07-8.31a1.77,1.77,0,1,0,1.73,1.77A1.75,1.75,0,0,0,131.85,20.76Zm0,16.61a1.77,1.77,0,1,0,1.73,1.77A1.75,1.75,0,0,0,131.85,37.37Zm4.06-20.76a1.77,1.77,0,1,0,1.73,1.77A1.75,1.75,0,0,0,135.91,16.61Zm0,29.07a1.77,1.77,0,1,0,1.73,1.76A1.75,1.75,0,0,0,135.91,45.68Zm8.14-37.37a1.77,1.77,0,1,0,1.72,1.76A1.74,1.74,0,0,0,144.05,8.31Zm0,8.3a1.77,1.77,0,1,0,1.72,1.77A1.75,1.75,0,0,0,144.05,16.61Zm4.06,16.61A1.77,1.77,0,1,0,149.84,35,1.75,1.75,0,0,0,148.11,33.22Zm0,12.46a1.77,1.77,0,1,0,1.73,1.76A1.75,1.75,0,0,0,148.11,45.68ZM164.38,8.31a1.77,1.77,0,1,0,1.73,1.76A1.74,1.74,0,0,0,164.38,8.31Zm-12.2,20.76a1.77,1.77,0,1,0,1.73,1.76A1.74,1.74,0,0,0,152.18,29.07Zm0,12.46a1.77,1.77,0,1,0,1.73,1.76A1.74,1.74,0,0,0,152.18,41.53Zm4.06,16.61A1.77,1.77,0,1,0,158,59.9,1.74,1.74,0,0,0,156.24,58.14Zm4.07-8.31A1.77,1.77,0,1,0,162,51.6,1.75,1.75,0,0,0,160.31,49.83Zm-24.4,8.31a1.77,1.77,0,1,0,1.73,1.76A1.75,1.75,0,0,0,135.91,58.14ZM9.86,8.31a1.77,1.77,0,1,0,1.73,1.76A1.75,1.75,0,0,0,9.86,8.31Zm4.07,8.3a1.77,1.77,0,1,0,1.73,1.77A1.75,1.75,0,0,0,13.93,16.61ZM1.73,29.07a1.77,1.77,0,0,0,0,3.53,1.77,1.77,0,0,0,0-3.53Zm12.2-4.15a1.77,1.77,0,1,0,1.73,1.76A1.74,1.74,0,0,0,13.93,24.92ZM18,4.15a1.77,1.77,0,1,0,1.73,1.77A1.74,1.74,0,0,0,18,4.15Zm0,8.31a1.77,1.77,0,1,0,1.73,1.76A1.74,1.74,0,0,0,18,12.46Zm0,16.61a1.77,1.77,0,1,0,1.73,1.76A1.74,1.74,0,0,0,18,29.07Zm0,16.61a1.77,1.77,0,1,0,1.73,1.76A1.74,1.74,0,0,0,18,45.68Zm0,12.46a1.77,1.77,0,1,0,1.73,1.76A1.74,1.74,0,0,0,18,58.14Zm4.07-37.38a1.77,1.77,0,1,0,1.73,1.77A1.75,1.75,0,0,0,22.06,20.76Zm0,20.77a1.77,1.77,0,1,0,1.73,1.76A1.75,1.75,0,0,0,22.06,41.53Zm4.07,16.61a1.77,1.77,0,1,0,1.72,1.76A1.74,1.74,0,0,0,26.13,58.14Zm4.06-8.31a1.77,1.77,0,1,0,1.73,1.77A1.75,1.75,0,0,0,30.19,49.83ZM38.32,54a1.77,1.77,0,1,0,1.73,1.77A1.75,1.75,0,0,0,38.32,54Zm4.07-37.37a1.77,1.77,0,1,0,1.73,1.77A1.75,1.75,0,0,0,42.39,16.61ZM38.32,33.22A1.77,1.77,0,1,0,40.05,35,1.74,1.74,0,0,0,38.32,33.22ZM46.46,54a1.77,1.77,0,1,0,1.73,1.77A1.75,1.75,0,0,0,46.46,54Zm4.06-33.22a1.77,1.77,0,1,0,1.73,1.77A1.75,1.75,0,0,0,50.52,20.76Zm0,12.46A1.77,1.77,0,1,0,52.25,35,1.75,1.75,0,0,0,50.52,33.22Zm0,12.46a1.77,1.77,0,1,0,1.73,1.76A1.75,1.75,0,0,0,50.52,45.68Zm4.07-33.22a1.77,1.77,0,1,0,1.73,1.76A1.75,1.75,0,0,0,54.59,12.46Zm0,24.91a1.77,1.77,0,1,0,1.73,1.77A1.76,1.76,0,0,0,54.59,37.37Zm4.07,12.46a1.77,1.77,0,1,0,1.72,1.77A1.75,1.75,0,0,0,58.66,49.83Zm-4.07,8.31a1.77,1.77,0,1,0,1.73,1.76A1.75,1.75,0,0,0,54.59,58.14Zm8.13-54a1.77,1.77,0,1,0,1.73,1.77A1.75,1.75,0,0,0,62.72,4.15Zm4.07,20.77a1.77,1.77,0,1,0,1.73,1.76A1.74,1.74,0,0,0,66.79,24.92Zm0,8.3A1.77,1.77,0,1,0,68.52,35,1.75,1.75,0,0,0,66.79,33.22ZM70.85,54a1.77,1.77,0,1,0,1.73,1.77A1.75,1.75,0,0,0,70.85,54Zm4.07-37.37a1.77,1.77,0,1,0,1.73,1.77A1.75,1.75,0,0,0,74.92,16.61Zm0,33.22a1.77,1.77,0,1,0,1.73,1.77A1.75,1.75,0,0,0,74.92,49.83Zm8.13-29.07a1.77,1.77,0,1,0,1.73,1.77A1.74,1.74,0,0,0,83.05,20.76ZM79,29.07a1.77,1.77,0,1,0,1.73,1.76A1.74,1.74,0,0,0,79,29.07ZM83.05,8.31a1.77,1.77,0,1,0,1.73,1.76A1.74,1.74,0,0,0,83.05,8.31Zm4.07,4.15a1.77,1.77,0,1,0,1.73,1.76A1.75,1.75,0,0,0,87.12,12.46Zm0,24.91a1.77,1.77,0,1,0,1.73,1.77A1.76,1.76,0,0,0,87.12,37.37ZM91.19,4.15a1.77,1.77,0,1,0,1.72,1.77A1.75,1.75,0,0,0,91.19,4.15Zm0,29.07A1.77,1.77,0,1,0,92.91,35,1.75,1.75,0,0,0,91.19,33.22Zm0,24.92a1.77,1.77,0,1,0,1.72,1.76A1.74,1.74,0,0,0,91.19,58.14ZM95.25,8.31A1.77,1.77,0,1,0,97,10.07,1.75,1.75,0,0,0,95.25,8.31Zm0,20.76A1.77,1.77,0,1,0,97,30.83,1.75,1.75,0,0,0,95.25,29.07Zm0,8.3A1.77,1.77,0,1,0,97,39.14,1.76,1.76,0,0,0,95.25,37.37Zm4.07-20.76a1.77,1.77,0,1,0,1.73,1.77A1.75,1.75,0,0,0,99.32,16.61Zm0,29.07a1.77,1.77,0,1,0,1.73,1.76A1.74,1.74,0,0,0,99.32,45.68Zm0,8.3a1.77,1.77,0,1,0,1.73,1.77A1.75,1.75,0,0,0,99.32,54Zm0,8.31a1.77,1.77,0,1,0,1.73,1.76A1.74,1.74,0,0,0,99.32,62.29Zm4.06-20.76a1.77,1.77,0,1,0,1.73,1.76A1.74,1.74,0,0,0,103.38,41.53Zm8.14-33.22a1.77,1.77,0,1,0,1.73,1.76A1.74,1.74,0,0,0,111.52,8.31Zm8.13,37.37a1.77,1.77,0,1,0,1.73,1.76A1.74,1.74,0,0,0,119.65,45.68Zm0,8.3a1.77,1.77,0,1,0,1.73,1.77A1.75,1.75,0,0,0,119.65,54Zm8.13-20.76A1.77,1.77,0,1,0,129.51,35,1.75,1.75,0,0,0,127.78,33.22Zm0,12.46a1.77,1.77,0,1,0,1.73,1.76A1.75,1.75,0,0,0,127.78,45.68Zm4.07-33.22a1.77,1.77,0,1,0,1.73,1.76A1.74,1.74,0,0,0,131.85,12.46Zm4.06,16.61a1.77,1.77,0,1,0,1.73,1.76A1.75,1.75,0,0,0,135.91,29.07Zm0,12.46a1.77,1.77,0,1,0,1.73,1.76A1.75,1.75,0,0,0,135.91,41.53Zm0,8.3a1.77,1.77,0,1,0,1.73,1.77A1.75,1.75,0,0,0,135.91,49.83ZM140,12.46a1.77,1.77,0,1,0,1.73,1.76A1.75,1.75,0,0,0,140,12.46Zm4.07,29.07a1.77,1.77,0,1,0,1.72,1.76A1.74,1.74,0,0,0,144.05,41.53Zm4.06-16.61a1.77,1.77,0,1,0,1.73,1.76A1.75,1.75,0,0,0,148.11,24.92Zm0-24.92a1.75,1.75,0,0,0-1.73,1.77,1.73,1.73,0,1,0,3.46,0A1.75,1.75,0,0,0,148.11,0Zm8.13,37.37A1.77,1.77,0,1,0,158,39.14,1.75,1.75,0,0,0,156.24,37.37Zm0,16.61A1.77,1.77,0,1,0,158,55.75,1.75,1.75,0,0,0,156.24,54Zm12.2-8.3a1.77,1.77,0,1,0,1.73,1.76A1.75,1.75,0,0,0,168.44,45.68Zm-4.06,12.46a1.77,1.77,0,1,0,1.73,1.76A1.74,1.74,0,0,0,164.38,58.14Zm-20.33,8.3a1.77,1.77,0,1,0,1.72,1.77A1.75,1.75,0,0,0,144.05,66.44ZM13.93,41.53a1.77,1.77,0,1,0,1.73,1.76A1.74,1.74,0,0,0,13.93,41.53ZM9.86,33.22A1.77,1.77,0,1,0,11.59,35,1.75,1.75,0,0,0,9.86,33.22ZM5.79,16.61a1.77,1.77,0,1,0,1.73,1.77A1.74,1.74,0,0,0,5.79,16.61ZM188.11,62.29a1.77,1.77,0,1,0,1.73,1.76A1.74,1.74,0,0,0,188.11,62.29Zm32.5,0a1.77,1.77,0,1,0,1.73,1.76A1.75,1.75,0,0,0,220.61,62.29ZM13.93,12.46a1.77,1.77,0,1,0,1.73,1.76A1.74,1.74,0,0,0,13.93,12.46ZM18,16.61a1.77,1.77,0,1,0,1.73,1.77A1.74,1.74,0,0,0,18,16.61Zm0,8.31a1.77,1.77,0,1,0,1.73,1.76A1.74,1.74,0,0,0,18,24.92Zm0,8.3A1.77,1.77,0,1,0,19.72,35,1.74,1.74,0,0,0,18,33.22Zm0,8.31a1.77,1.77,0,1,0,1.73,1.76A1.74,1.74,0,0,0,18,41.53Zm-8.13,0a1.77,1.77,0,1,0,1.73,1.76A1.75,1.75,0,0,0,9.86,41.53Zm0,8.3a1.77,1.77,0,1,0,1.73,1.77A1.75,1.75,0,0,0,9.86,49.83Zm8.13,0a1.77,1.77,0,1,0,1.73,1.77A1.74,1.74,0,0,0,18,49.83ZM5.79,58.14A1.77,1.77,0,1,0,7.52,59.9,1.74,1.74,0,0,0,5.79,58.14ZM18,66.44a1.77,1.77,0,1,0,1.73,1.77A1.74,1.74,0,0,0,18,66.44ZM18,8.31a1.77,1.77,0,1,0,1.73,1.76A1.74,1.74,0,0,0,18,8.31Zm4.07,4.15a1.77,1.77,0,1,0,1.73,1.76A1.75,1.75,0,0,0,22.06,12.46Zm0,4.15a1.77,1.77,0,1,0,1.73,1.77A1.75,1.75,0,0,0,22.06,16.61Zm0,8.31a1.77,1.77,0,1,0,1.73,1.76A1.75,1.75,0,0,0,22.06,24.92Zm0,4.15a1.77,1.77,0,1,0,1.73,1.76A1.75,1.75,0,0,0,22.06,29.07Zm0,8.3a1.77,1.77,0,1,0,1.73,1.77A1.76,1.76,0,0,0,22.06,37.37Zm0,8.31a1.77,1.77,0,1,0,1.73,1.76A1.75,1.75,0,0,0,22.06,45.68Zm0,8.3a1.77,1.77,0,1,0,1.73,1.77A1.76,1.76,0,0,0,22.06,54Zm0,4.16a1.77,1.77,0,1,0,1.73,1.76A1.75,1.75,0,0,0,22.06,58.14Zm4.07-33.22a1.77,1.77,0,1,0,1.72,1.76A1.74,1.74,0,0,0,26.13,24.92Zm0,16.61a1.77,1.77,0,1,0,1.72,1.76A1.74,1.74,0,0,0,26.13,41.53Zm0,12.45a1.77,1.77,0,1,0,1.72,1.77A1.75,1.75,0,0,0,26.13,54Zm4.06,4.16a1.77,1.77,0,1,0,1.73,1.76A1.75,1.75,0,0,0,30.19,58.14ZM34.26,54A1.77,1.77,0,1,0,36,55.75,1.75,1.75,0,0,0,34.26,54Zm-4.07,8.31a1.77,1.77,0,1,0,1.73,1.76A1.75,1.75,0,0,0,30.19,62.29Zm8.13-4.15a1.77,1.77,0,1,0,1.73,1.76A1.74,1.74,0,0,0,38.32,58.14Zm0,4.15a1.77,1.77,0,1,0,1.73,1.76A1.74,1.74,0,0,0,38.32,62.29Zm4.07-12.46a1.77,1.77,0,1,0,1.73,1.77A1.75,1.75,0,0,0,42.39,49.83Zm0,12.46a1.77,1.77,0,1,0,1.73,1.76A1.75,1.75,0,0,0,42.39,62.29ZM46.46,4.15a1.77,1.77,0,1,0,1.73,1.77A1.75,1.75,0,0,0,46.46,4.15ZM58.66,0a1.75,1.75,0,0,0-1.73,1.77,1.73,1.73,0,1,0,3.45,0A1.74,1.74,0,0,0,58.66,0ZM46.46,12.46a1.77,1.77,0,1,0,1.73,1.76A1.74,1.74,0,0,0,46.46,12.46Zm0,8.3a1.77,1.77,0,1,0,1.73,1.77A1.75,1.75,0,0,0,46.46,20.76ZM38.32,8.31a1.77,1.77,0,1,0,1.73,1.76A1.74,1.74,0,0,0,38.32,8.31Zm8.14,20.76a1.77,1.77,0,1,0,1.73,1.76A1.74,1.74,0,0,0,46.46,29.07Zm0,8.3a1.77,1.77,0,1,0,1.73,1.77A1.75,1.75,0,0,0,46.46,37.37Zm0,8.31a1.77,1.77,0,1,0,1.73,1.76A1.74,1.74,0,0,0,46.46,45.68Zm0,12.46a1.77,1.77,0,1,0,1.73,1.76A1.74,1.74,0,0,0,46.46,58.14Zm4.06-54a1.77,1.77,0,1,0,1.73,1.77A1.75,1.75,0,0,0,50.52,4.15Zm0,8.31a1.77,1.77,0,1,0,1.73,1.76A1.75,1.75,0,0,0,50.52,12.46Zm0,12.46a1.77,1.77,0,1,0,1.73,1.76A1.75,1.75,0,0,0,50.52,24.92Zm0,12.45a1.77,1.77,0,1,0,1.73,1.77A1.76,1.76,0,0,0,50.52,37.37Zm0,4.16a1.77,1.77,0,1,0,1.73,1.76A1.75,1.75,0,0,0,50.52,41.53Zm0,8.3a1.77,1.77,0,1,0,1.73,1.77A1.75,1.75,0,0,0,50.52,49.83ZM54.59,8.31a1.77,1.77,0,1,0,1.73,1.76A1.75,1.75,0,0,0,54.59,8.31Zm0,8.3a1.77,1.77,0,1,0,1.73,1.77A1.75,1.75,0,0,0,54.59,16.61Zm0,8.31a1.77,1.77,0,1,0,1.73,1.76A1.75,1.75,0,0,0,54.59,24.92Zm0,4.15a1.77,1.77,0,1,0,1.73,1.76A1.75,1.75,0,0,0,54.59,29.07Zm0,16.61a1.77,1.77,0,1,0,1.73,1.76A1.75,1.75,0,0,0,54.59,45.68Zm0,4.15a1.77,1.77,0,1,0,1.73,1.77A1.75,1.75,0,0,0,54.59,49.83Zm4.07-12.46a1.77,1.77,0,1,0,1.72,1.77A1.75,1.75,0,0,0,58.66,37.37Zm4.06,8.31a1.77,1.77,0,1,0,1.73,1.76A1.75,1.75,0,0,0,62.72,45.68Zm4.07,4.15a1.77,1.77,0,1,0,1.73,1.77A1.75,1.75,0,0,0,66.79,49.83Zm0,8.31a1.77,1.77,0,1,0,1.73,1.76A1.74,1.74,0,0,0,66.79,58.14Zm4.06-41.53a1.77,1.77,0,1,0,1.73,1.77A1.74,1.74,0,0,0,70.85,16.61Zm-4.06,0a1.77,1.77,0,1,0,1.73,1.77A1.75,1.75,0,0,0,66.79,16.61Zm4.06,8.31a1.77,1.77,0,1,0,1.73,1.76A1.74,1.74,0,0,0,70.85,24.92Zm0-16.61a1.77,1.77,0,1,0,1.73,1.76A1.74,1.74,0,0,0,70.85,8.31Zm4.07,4.15a1.77,1.77,0,1,0,1.73,1.76A1.75,1.75,0,0,0,74.92,12.46Zm0,8.3a1.77,1.77,0,1,0,1.73,1.77A1.75,1.75,0,0,0,74.92,20.76Zm0,8.31a1.77,1.77,0,1,0,1.73,1.76A1.75,1.75,0,0,0,74.92,29.07Zm0,4.15A1.77,1.77,0,1,0,76.65,35,1.75,1.75,0,0,0,74.92,33.22Zm0,12.46a1.77,1.77,0,1,0,1.73,1.76A1.75,1.75,0,0,0,74.92,45.68Zm-4.07,0a1.77,1.77,0,1,0,1.73,1.76A1.74,1.74,0,0,0,70.85,45.68ZM74.92,54a1.77,1.77,0,1,0,1.73,1.77A1.76,1.76,0,0,0,74.92,54Zm0,4.16a1.77,1.77,0,1,0,1.73,1.76A1.75,1.75,0,0,0,74.92,58.14Zm0,4.15a1.77,1.77,0,1,0,1.73,1.76A1.75,1.75,0,0,0,74.92,62.29ZM79,8.31a1.77,1.77,0,1,0,1.73,1.76A1.74,1.74,0,0,0,79,8.31Zm0,8.3a1.77,1.77,0,1,0,1.73,1.77A1.75,1.75,0,0,0,79,16.61Zm0,8.31a1.77,1.77,0,1,0,1.73,1.76A1.74,1.74,0,0,0,79,24.92Zm0,8.3A1.77,1.77,0,1,0,80.72,35,1.75,1.75,0,0,0,79,33.22Zm0,16.61a1.77,1.77,0,1,0,1.73,1.77A1.75,1.75,0,0,0,79,49.83Zm0,8.31a1.77,1.77,0,1,0,1.73,1.76A1.74,1.74,0,0,0,79,58.14Zm0-54a1.77,1.77,0,1,0,1.73,1.77A1.75,1.75,0,0,0,79,4.15Zm4.06,8.31a1.77,1.77,0,1,0,1.73,1.76A1.74,1.74,0,0,0,83.05,12.46Zm0,16.61a1.77,1.77,0,1,0,1.73,1.76A1.74,1.74,0,0,0,83.05,29.07Zm0,8.3a1.77,1.77,0,1,0,1.73,1.77A1.75,1.75,0,0,0,83.05,37.37Zm0,16.61a1.77,1.77,0,1,0,1.73,1.77A1.75,1.75,0,0,0,83.05,54ZM87.12,8.31a1.77,1.77,0,1,0,1.73,1.76A1.75,1.75,0,0,0,87.12,8.31Zm0-4.16a1.77,1.77,0,1,0,1.73,1.77A1.75,1.75,0,0,0,87.12,4.15Zm0,24.92a1.77,1.77,0,1,0,1.73,1.76A1.75,1.75,0,0,0,87.12,29.07Zm0,4.15A1.77,1.77,0,1,0,88.85,35,1.75,1.75,0,0,0,87.12,33.22Zm0,24.92a1.77,1.77,0,1,0,1.73,1.76A1.75,1.75,0,0,0,87.12,58.14Zm0,4.15a1.77,1.77,0,1,0,1.73,1.76A1.75,1.75,0,0,0,87.12,62.29Zm4.07-54a1.77,1.77,0,1,0,1.72,1.76A1.74,1.74,0,0,0,91.19,8.31Zm0,45.67a1.77,1.77,0,1,0,1.72,1.77A1.75,1.75,0,0,0,91.19,54Zm4.06-41.52A1.77,1.77,0,1,0,97,14.22,1.75,1.75,0,0,0,95.25,12.46Zm0,4.15A1.77,1.77,0,1,0,97,18.38,1.75,1.75,0,0,0,95.25,16.61Zm0,16.61A1.77,1.77,0,1,0,97,35,1.75,1.75,0,0,0,95.25,33.22Zm0,8.31A1.77,1.77,0,1,0,97,43.29,1.75,1.75,0,0,0,95.25,41.53Zm0,8.3A1.77,1.77,0,1,0,97,51.6,1.75,1.75,0,0,0,95.25,49.83Zm0,4.15A1.77,1.77,0,1,0,97,55.75,1.76,1.76,0,0,0,95.25,54Zm0,8.31A1.77,1.77,0,1,0,97,64.05,1.75,1.75,0,0,0,95.25,62.29Zm4.07-54a1.77,1.77,0,1,0,1.73,1.76A1.74,1.74,0,0,0,99.32,8.31Zm0,12.45a1.77,1.77,0,1,0,1.73,1.77A1.75,1.75,0,0,0,99.32,20.76Zm0,12.46A1.77,1.77,0,1,0,101.05,35,1.75,1.75,0,0,0,99.32,33.22Zm0,4.15a1.77,1.77,0,1,0,1.73,1.77A1.75,1.75,0,0,0,99.32,37.37Zm0,12.46a1.77,1.77,0,1,0,1.73,1.77A1.75,1.75,0,0,0,99.32,49.83Zm0,8.31a1.77,1.77,0,1,0,1.73,1.76A1.74,1.74,0,0,0,99.32,58.14ZM103.38,0a1.74,1.74,0,0,0-1.72,1.77,1.73,1.73,0,1,0,3.45,0A1.75,1.75,0,0,0,103.38,0Zm0,12.46a1.77,1.77,0,1,0,1.73,1.76A1.74,1.74,0,0,0,103.38,12.46Zm4.07,8.3a1.77,1.77,0,1,0,1.73,1.77A1.75,1.75,0,0,0,107.45,20.76Zm-4.07,8.31a1.77,1.77,0,1,0,1.73,1.76A1.74,1.74,0,0,0,103.38,29.07Zm0,16.61a1.77,1.77,0,1,0,1.73,1.76A1.74,1.74,0,0,0,103.38,45.68Zm0,8.3a1.77,1.77,0,1,0,1.73,1.77A1.75,1.75,0,0,0,103.38,54Zm4.07-12.45a1.77,1.77,0,1,0,1.73,1.76A1.75,1.75,0,0,0,107.45,41.53Zm0,4.15a1.77,1.77,0,1,0,1.73,1.76A1.75,1.75,0,0,0,107.45,45.68Zm0,8.3a1.77,1.77,0,1,0,1.73,1.77A1.76,1.76,0,0,0,107.45,54Zm0,8.31a1.77,1.77,0,1,0,1.73,1.76A1.75,1.75,0,0,0,107.45,62.29Zm8.13-16.61a1.77,1.77,0,1,0,1.73,1.76A1.75,1.75,0,0,0,115.58,45.68Zm0-8.31a1.77,1.77,0,1,0,1.73,1.77A1.76,1.76,0,0,0,115.58,37.37Zm0,24.92a1.77,1.77,0,1,0,1.73,1.76A1.75,1.75,0,0,0,115.58,62.29Zm4.07-12.46a1.77,1.77,0,1,0,1.73,1.77A1.75,1.75,0,0,0,119.65,49.83Zm0,8.31a1.77,1.77,0,1,0,1.73,1.76A1.74,1.74,0,0,0,119.65,58.14Zm12.2,4.15a1.77,1.77,0,1,0,1.73,1.76A1.74,1.74,0,0,0,131.85,62.29Zm-8.14-45.68a1.77,1.77,0,1,0,1.73,1.77A1.74,1.74,0,0,0,123.71,16.61Zm0,16.61A1.77,1.77,0,1,0,125.44,35,1.74,1.74,0,0,0,123.71,33.22Zm0,8.31a1.77,1.77,0,1,0,1.73,1.76A1.74,1.74,0,0,0,123.71,41.53Zm0,4.15a1.77,1.77,0,1,0,1.73,1.76A1.74,1.74,0,0,0,123.71,45.68Zm0,8.3a1.77,1.77,0,1,0,1.73,1.77A1.75,1.75,0,0,0,123.71,54Zm0,4.16a1.77,1.77,0,1,0,1.73,1.76A1.74,1.74,0,0,0,123.71,58.14Zm4.07-33.22a1.77,1.77,0,1,0,1.73,1.76A1.75,1.75,0,0,0,127.78,24.92Zm0,12.45a1.77,1.77,0,1,0,1.73,1.77A1.76,1.76,0,0,0,127.78,37.37Zm0,4.16a1.77,1.77,0,1,0,1.73,1.76A1.75,1.75,0,0,0,127.78,41.53Zm0,8.3a1.77,1.77,0,1,0,1.73,1.77A1.75,1.75,0,0,0,127.78,49.83Zm4.07-33.22a1.77,1.77,0,1,0,1.73,1.77A1.75,1.75,0,0,0,131.85,16.61Zm0,8.31a1.77,1.77,0,1,0,1.73,1.76A1.74,1.74,0,0,0,131.85,24.92Zm0,4.15a1.77,1.77,0,1,0,1.73,1.76A1.74,1.74,0,0,0,131.85,29.07Zm0,4.15A1.77,1.77,0,1,0,133.58,35,1.75,1.75,0,0,0,131.85,33.22Zm0,12.46a1.77,1.77,0,1,0,1.73,1.76A1.74,1.74,0,0,0,131.85,45.68Zm4.06-37.37a1.77,1.77,0,1,0,1.73,1.76A1.75,1.75,0,0,0,135.91,8.31Zm0,4.15a1.77,1.77,0,1,0,1.73,1.76A1.75,1.75,0,0,0,135.91,12.46Zm0,8.3a1.77,1.77,0,1,0,1.73,1.77A1.75,1.75,0,0,0,135.91,20.76ZM140,4.15a1.77,1.77,0,1,0,1.73,1.77A1.75,1.75,0,0,0,140,4.15ZM127.78,0a1.75,1.75,0,0,0-1.73,1.77,1.73,1.73,0,1,0,3.46,0A1.75,1.75,0,0,0,127.78,0ZM140,8.31a1.77,1.77,0,1,0,1.73,1.76A1.75,1.75,0,0,0,140,8.31Zm0,8.3a1.77,1.77,0,1,0,1.73,1.77A1.75,1.75,0,0,0,140,16.61Zm0,24.92a1.77,1.77,0,1,0,1.73,1.76A1.75,1.75,0,0,0,140,41.53Zm0,4.15a1.77,1.77,0,1,0,1.73,1.76A1.75,1.75,0,0,0,140,45.68Zm0,4.15a1.77,1.77,0,1,0,1.73,1.77A1.75,1.75,0,0,0,140,49.83Zm4.07-37.37a1.77,1.77,0,1,0,1.72,1.76A1.74,1.74,0,0,0,144.05,12.46Zm0,8.3a1.77,1.77,0,1,0,1.72,1.77A1.75,1.75,0,0,0,144.05,20.76Zm0,4.16a1.77,1.77,0,1,0,1.72,1.76A1.74,1.74,0,0,0,144.05,24.92Zm0,20.76a1.77,1.77,0,1,0,1.72,1.76A1.74,1.74,0,0,0,144.05,45.68Zm4.06-29.07a1.77,1.77,0,1,0,1.73,1.77A1.75,1.75,0,0,0,148.11,16.61Zm0,4.15a1.77,1.77,0,1,0,1.73,1.77A1.75,1.75,0,0,0,148.11,20.76Zm0,8.31a1.77,1.77,0,1,0,1.73,1.76A1.75,1.75,0,0,0,148.11,29.07Zm0,12.46a1.77,1.77,0,1,0,1.73,1.76A1.75,1.75,0,0,0,148.11,41.53Zm0,8.3a1.77,1.77,0,1,0,1.73,1.77A1.75,1.75,0,0,0,148.11,49.83Zm4.07,12.46a1.77,1.77,0,1,0,1.73,1.76A1.74,1.74,0,0,0,152.18,62.29Zm0-49.83a1.77,1.77,0,1,0,1.73,1.76A1.74,1.74,0,0,0,152.18,12.46Zm0,12.46a1.77,1.77,0,1,0,1.73,1.76A1.74,1.74,0,0,0,152.18,24.92Zm0,8.3A1.77,1.77,0,1,0,153.91,35,1.75,1.75,0,0,0,152.18,33.22Zm0,4.15a1.77,1.77,0,1,0,1.73,1.77A1.75,1.75,0,0,0,152.18,37.37Zm0,8.31a1.77,1.77,0,1,0,1.73,1.76A1.74,1.74,0,0,0,152.18,45.68Zm4.06-12.46A1.77,1.77,0,1,0,158,35,1.74,1.74,0,0,0,156.24,33.22Zm0,8.31A1.77,1.77,0,1,0,158,43.29,1.74,1.74,0,0,0,156.24,41.53Zm0,4.15A1.77,1.77,0,1,0,158,47.44,1.74,1.74,0,0,0,156.24,45.68Zm0,4.15A1.77,1.77,0,1,0,158,51.6,1.74,1.74,0,0,0,156.24,49.83Zm4.07-8.3A1.77,1.77,0,1,0,162,43.29,1.75,1.75,0,0,0,160.31,41.53Zm0,12.45A1.77,1.77,0,1,0,162,55.75,1.76,1.76,0,0,0,160.31,54Zm0,4.16A1.77,1.77,0,1,0,162,59.9,1.75,1.75,0,0,0,160.31,58.14Zm0,4.15A1.77,1.77,0,1,0,162,64.05,1.75,1.75,0,0,0,160.31,62.29Zm4.07-33.22a1.77,1.77,0,1,0,1.73,1.76A1.74,1.74,0,0,0,164.38,29.07Zm0,20.76a1.77,1.77,0,1,0,1.73,1.77A1.75,1.75,0,0,0,164.38,49.83Zm0,12.46a1.77,1.77,0,1,0,1.73,1.76A1.74,1.74,0,0,0,164.38,62.29Zm4.06-4.15a1.77,1.77,0,1,0,1.73,1.76A1.75,1.75,0,0,0,168.44,58.14ZM9.86,0A1.75,1.75,0,0,0,8.13,1.77a1.73,1.73,0,1,0,3.46,0A1.75,1.75,0,0,0,9.86,0Zm0,20.76a1.77,1.77,0,1,0,1.73,1.77A1.75,1.75,0,0,0,9.86,20.76Zm4.07,8.31a1.77,1.77,0,1,0,1.73,1.76A1.74,1.74,0,0,0,13.93,29.07Zm0,4.15A1.77,1.77,0,1,0,15.66,35,1.75,1.75,0,0,0,13.93,33.22Zm0,4.15a1.77,1.77,0,1,0,1.73,1.77A1.75,1.75,0,0,0,13.93,37.37Zm0,16.61a1.77,1.77,0,1,0,1.73,1.77A1.75,1.75,0,0,0,13.93,54ZM192.25,19a1,1,0,0,0,1,.72h.08a1,1,0,0,0,1-.72l5.78-13.63a1,1,0,0,0,.06-.35.83.83,0,0,0-.83-.82,1,1,0,0,0-.83.61l-5.18,12.67L188.13,4.83a.94.94,0,0,0-.87-.65.86.86,0,0,0-.77,1.24ZM203.52,5.92a.91.91,0,0,0,1-.9V4.74a1,1,0,0,0-1.94,0V5A.91.91,0,0,0,203.52,5.92Zm0,2.24a.84.84,0,0,0-.81.85v9.78a.83.83,0,0,0,.83.85.81.81,0,0,0,.81-.85V9A.83.83,0,0,0,203.52,8.16Zm8.15,11.58c2.19,0,3.92-1.24,3.92-3.37v0c0-2-1.83-2.7-3.54-3.23-1.47-.45-2.83-.87-2.83-1.93v-.05c0-.93.83-1.63,2.13-1.63a5.92,5.92,0,0,1,2.88.87.82.82,0,0,0,.36.09.72.72,0,0,0,.72-.72.82.82,0,0,0-.4-.7,7.56,7.56,0,0,0-3.52-1c-2.17,0-3.75,1.29-3.75,3.23v0c0,2.07,1.92,2.68,3.64,3.18,1.45.41,2.75.85,2.75,2v0c0,1.09-.95,1.79-2.28,1.79a6.06,6.06,0,0,1-3.49-1.2.65.65,0,0,0-.41-.13.72.72,0,0,0-.72.72.77.77,0,0,0,.3.61A7.5,7.5,0,0,0,211.67,19.74Zm7.87-13.82a.92.92,0,0,0,1-.9V4.74a.9.9,0,0,0-1-.89.89.89,0,0,0-1,.89V5A.91.91,0,0,0,219.54,5.92Zm0,2.24a.84.84,0,0,0-.81.85v9.78a.83.83,0,0,0,.83.85.81.81,0,0,0,.81-.85V9A.83.83,0,0,0,219.54,8.16Zm5.16,8.38a2.83,2.83,0,0,0,3.11,3.18,4.18,4.18,0,0,0,1.62-.3.7.7,0,0,0,.47-.66.71.71,0,0,0-.71-.71,4.44,4.44,0,0,1-1,.15,1.64,1.64,0,0,1-1.85-1.87V9.75h2.85a.75.75,0,0,0,.75-.74.76.76,0,0,0-.75-.74h-2.85V5.61a.87.87,0,0,0-.83-.85.83.83,0,0,0-.81.85V8.27h-.9a.74.74,0,0,0-.72.74.75.75,0,0,0,.72.74h.9ZM193.1,28.75h4.33a.8.8,0,0,0,.79-.79.81.81,0,0,0-.79-.8H187.06a.81.81,0,0,0-.78.8.79.79,0,0,0,.78.79h4.33V41.64a.86.86,0,1,0,1.71,0Zm15.48,7.07v5.84a.83.83,0,0,0,.83.85.82.82,0,0,0,.81-.85V35.41c0-2.68-1.55-4.51-4.22-4.51a4.16,4.16,0,0,0-3.77,2.2V27.24a.82.82,0,1,0-1.64,0V41.66a.83.83,0,0,0,.83.85.81.81,0,0,0,.81-.85V36a3.28,3.28,0,0,1,3.3-3.52C207.47,32.43,208.58,33.73,208.58,35.82Zm9.49-4.92c-3,0-5.29,2.62-5.29,5.86v0A5.63,5.63,0,0,0,222.44,41a.71.71,0,1,0-.94-1.06,4.46,4.46,0,0,1-3.18,1.3,3.89,3.89,0,0,1-3.88-3.81h8a.77.77,0,0,0,.77-.78C223.18,33.62,221.33,30.9,218.07,30.9Zm-3.63,5.25c.21-2.2,1.66-3.83,3.58-3.83,2.2,0,3.35,1.78,3.52,3.83Zm23.9-8.23a.84.84,0,1,0-1.68,0V36c0,3.33-1.75,5-4.5,5s-4.57-1.85-4.57-5.14v-8a.84.84,0,1,0-1.68,0V36c0,4.31,2.52,6.62,6.2,6.62s6.23-2.31,6.23-6.75Zm8.76,6c-3.28-.72-4-1.52-4-3v0c0-1.38,1.24-2.46,3.18-2.46a6.18,6.18,0,0,1,3.86,1.32.78.78,0,0,0,.49.16.82.82,0,0,0,.81-.83.89.89,0,0,0-.36-.7,7.54,7.54,0,0,0-4.76-1.5c-2.83,0-4.9,1.76-4.9,4.16v0c0,2.51,1.58,3.64,5,4.4,3.13.68,3.88,1.48,3.88,2.9v0c0,1.5-1.32,2.59-3.33,2.59a6.72,6.72,0,0,1-4.71-1.81.79.79,0,0,0-.51-.19.82.82,0,0,0-.81.85.78.78,0,0,0,.32.65,8.6,8.6,0,0,0,5.65,2c3,0,5.1-1.7,5.1-4.31v-.05C252,35.93,250.43,34.69,247.1,34Zm20.79,7.3-6.05-13.5a1.09,1.09,0,0,0-1-.77h-.08a1.12,1.12,0,0,0-1.07.77l-6,13.52a.92.92,0,0,0-.11.45.77.77,0,0,0,.77.79.85.85,0,0,0,.81-.59l1.55-3.55h8.19l1.56,3.51a.91.91,0,0,0,.83.63.82.82,0,0,0,.81-.83A1.05,1.05,0,0,0,267.89,41.25ZM257.28,36.8,260.71,29l3.43,7.79ZM202.16,63a.66.66,0,0,0-.47.22,4.37,4.37,0,0,1-3.07,1.37,4.17,4.17,0,0,1-4.05-4.37v0a4.12,4.12,0,0,1,3.94-4.35,4.21,4.21,0,0,1,3,1.35.83.83,0,0,0,.53.19.81.81,0,0,0,.54-1.39,5.66,5.66,0,0,0-4.05-1.63,5.75,5.75,0,0,0-5.65,5.88v0a5.72,5.72,0,0,0,5.65,5.84,5.5,5.5,0,0,0,4.15-1.81.77.77,0,0,0,.22-.52A.78.78,0,0,0,202.16,63Zm8.13-8.66a5.77,5.77,0,0,0-5.76,5.88v0a5.71,5.71,0,0,0,5.71,5.84A5.79,5.79,0,0,0,216,60.23v0A5.72,5.72,0,0,0,210.29,54.35Zm4.05,5.92a4.12,4.12,0,0,1-4.05,4.33,4.19,4.19,0,0,1-4.08-4.37v0a4.12,4.12,0,0,1,4-4.35,4.22,4.22,0,0,1,4.1,4.4Zm19.06-5.79a.81.81,0,0,0-.81.85V61a3.3,3.3,0,0,1-3.3,3.53c-1.95,0-3-1.31-3-3.4V55.33a.85.85,0,0,0-.84-.85.82.82,0,0,0-.81.85v6.25c0,2.67,1.56,4.5,4.23,4.5a4.19,4.19,0,0,0,3.77-2.2V65.1a.81.81,0,1,0,1.62,0V55.33A.82.82,0,0,0,233.4,54.48Zm9.25,5.05,3.61-3.62a.87.87,0,0,0,.32-.65.76.76,0,0,0-.75-.78.83.83,0,0,0-.64.32l-6,6.21V50.69a.82.82,0,1,0-1.64,0V65.1a.83.83,0,0,0,.83.85.81.81,0,0,0,.81-.85V63l2.28-2.31,3.82,4.92a.79.79,0,0,0,.7.39.76.76,0,0,0,.79-.78.86.86,0,0,0-.21-.57Z" transform="translate(0)"/></svg>