<svg xmlns="http://www.w3.org/2000/svg" width="174.38mm" height="104.61mm" viewBox="0 0 494.3 296.52"><defs><style>.a,.b{fill:#fff;}.b{opacity:0.66;}</style></defs><title>title-vertical</title><path class="a" d="M164.51,18.26a23.15,23.15,0,0,0-3.14-5.35,7.88,7.88,0,0,0-.94-1.15,25.06,25.06,0,0,0-8.36-6.2q-8.77-4.14-24.14-4.15H98V128.33h30.87c9.82,0,17.62-1.5,23.35-4.47a25.62,25.62,0,0,0,12.29-13.38c2.47-6,3.71-13.73,3.71-23.35V40.91Q168.22,26.8,164.51,18.26ZM144.69,87.9a76.94,76.94,0,0,1-.94,14.17,12,12,0,0,1-4.38,7.47q-3.44,2.65-11.11,2.65h-7.21V17.85h6.88q7.55,0,11.06,2.12a9.26,9.26,0,0,1,2.79,2.56,7.52,7.52,0,0,1,.83,1.32,10.71,10.71,0,0,1,1,2.65,56.6,56.6,0,0,1,1.08,12.82Z"/><path class="a" d="M234.65,47.17v-11A70.56,70.56,0,0,0,234,25.61a12.73,12.73,0,0,0-1.09-3.41,11,11,0,0,0-.85-1.41,9.83,9.83,0,0,0-1.29-1.44c-1.71-1.62-4.42-2.44-8.06-2.44s-6.59.88-8.47,2.59a12.46,12.46,0,0,0-3.68,6.91,58.9,58.9,0,0,0-.85,11.2v55q0,10.82,2.82,15.59a8,8,0,0,0,2.53,2.73,5.74,5.74,0,0,0,1.27.77,14,14,0,0,0,6.38,1.29c3.56,0,6.17-.85,7.91-2.5a11.72,11.72,0,0,0,3.29-6.67,68.74,68.74,0,0,0,.71-11.06V81.31h22.26V91.52c0,12.2-2.59,21.7-7.71,28.43s-14,10.12-26.61,10.12c-10.14,0-18-2.21-23.55-6.56-.3-.24-.62-.47-.91-.74h0a24.23,24.23,0,0,1-3.47-3.76q-8.25-11-8.24-31.26V42.46q0-20.8,8.15-31.64T222.59,0q18.27,0,26.14,9.06a3.53,3.53,0,0,1,.33.35,8.71,8.71,0,0,1,.64.83q7.2,9.3,7.21,26.28V47.17Z"/><path class="a" d="M371.18,120.54s-.06.06-.06.09c.62.67,1.24,1.29,1.89,1.88C372.39,121.89,371.77,121.22,371.18,120.54Zm2.06,2.09-.06.06c.24.2.44.41.68.61C373.65,123.1,373.45,122.86,373.24,122.63Z"/><path class="a" d="M385.77,110.25a4.41,4.41,0,0,1-.5-.3,22.47,22.47,0,0,1-2.27-1.53.6.6,0,0,0-.08-.08,15.87,15.87,0,0,1-2.09-2.09A72.16,72.16,0,0,0,391.53,72c0-.68.06-1.38.09-2.09s0-1.38,0-2.09H374.74a96.92,96.92,0,0,1-1.82,14.65,52.44,52.44,0,0,1-2.77,9.7,5.48,5.48,0,0,1-.38.85,7,7,0,0,1-.38.83l-16.91-29c4.71-4.7,8.5-8.79,11.44-12.29a59,59,0,0,0,7.76-12.38,34.68,34.68,0,0,0,3.36-15A24.33,24.33,0,0,0,370.27,10a13.18,13.18,0,0,0-1-1.18s0,0-.06-.08c-.56-.65-1.17-1.24-1.79-1.83Q359.82,0,347.78,0c-8.56,0-15.3,2.59-20.15,7.77s-7.26,11.88-7.26,20.11a39,39,0,0,0,2.79,14.5,144.75,144.75,0,0,0,8.47,17.17L333.51,63A73.72,73.72,0,0,0,320.1,80.4a42.22,42.22,0,0,0-4.76,20.2q0,13.32,7.82,21.38a17.27,17.27,0,0,0,1.33,1.24,8.78,8.78,0,0,0,1.11.94q7.36,5.91,18.56,5.91A32.14,32.14,0,0,0,358.42,127a31.09,31.09,0,0,0,10.68-8.56c.67.77,1.32,1.5,2,2.18,0,0,0-.06.06-.09.59.68,1.21,1.35,1.83,2a.47.47,0,0,0,.17.18l.06-.06c.21.23.41.47.62.67a43.4,43.4,0,0,0,4.56,3.53,19.18,19.18,0,0,0,10.41,3.38,20.37,20.37,0,0,0,3.29-.32V112A15,15,0,0,1,385.77,110.25Zm-44.35-91a7.35,7.35,0,0,1,6.5-3.44,8.61,8.61,0,0,1,6.35,2.44,6.93,6.93,0,0,1,.92,1.12,5.65,5.65,0,0,1,.73,1.35,10.29,10.29,0,0,1,.8,4.18,40.52,40.52,0,0,1-3.24,15,55.91,55.91,0,0,1-6,11.5c-.26.41-.53.79-.79,1.17s-.53.71-.8,1A115.93,115.93,0,0,1,341,40.2a44,44,0,0,1-1.79-12.32A15.55,15.55,0,0,1,341.42,19.26Zm3.21,95.13a9.87,9.87,0,0,1-4.41-.91,6.21,6.21,0,0,1-1.15-.64,8.85,8.85,0,0,1-2.41-2.53A18.38,18.38,0,0,1,334,100a39.5,39.5,0,0,1,7.39-22.73L343,80l1.65,2.76,14.08,23.62Q353,114.38,344.63,114.39Z"/><path class="a" d="M373.86,123.3c-.21-.2-.41-.44-.62-.67l-.06.06c.47.5.94,1,1.44,1.47C374.36,123.89,374.12,123.6,373.86,123.3Z"/><path class="b" d="M168.69,22.44a24,24,0,0,0-6.26-8.68,23.72,23.72,0,0,1,4.17,6.59q3.71,8.52,3.71,22.64V89.22c0,9.59-1.24,17.38-3.71,23.32A25.61,25.61,0,0,1,154.31,126q-8.61,4.45-23.35,4.47H102.17v2.09h30.88c9.82,0,17.58-1.5,23.35-4.47a25.61,25.61,0,0,0,12.29-13.41c2.47-5.94,3.68-13.73,3.68-23.35V45.05C172.37,35.67,171.16,28.11,168.69,22.44Zm-26.91.09a7.14,7.14,0,0,0-.7-.47c-2.36-1.41-6-2.12-11.06-2.12h-6.88v92.25h2.06V22h6.91c4.61,0,8.14.61,10.5,1.82A7.52,7.52,0,0,0,141.78,22.53Z"/><path class="b" d="M253.23,13.56a17.92,17.92,0,0,0-2.34-2.35c.1.1.17.2.26.29Q259,20.89,259,38.58V49.26H238.82v2.09h22.24V40.67Q261.06,23,253.23,13.56ZM259,85.49V93.6q0,18.32-7.71,28.44t-26.61,10.12q-16.05,0-24.5-7.3,8.38,9.36,26.56,9.35,19,0,26.64-10.08t7.68-28.44V85.49Zm-26.91-64.7A12.8,12.8,0,0,0,224.83,19c-3.77,0-6.59.88-8.47,2.59a12.43,12.43,0,0,0-3.68,6.91,57.8,57.8,0,0,0-.85,11.2v55q0,10.82,2.82,15.59a3.47,3.47,0,0,0,.44.64,5.74,5.74,0,0,0,1.27.77c-1.65-3.21-2.47-8.21-2.47-14.91v-55a57.44,57.44,0,0,1,.88-11.21,12.25,12.25,0,0,1,3.68-6.91c1.88-1.7,4.7-2.58,8.46-2.58a14.3,14.3,0,0,1,6,1.11A11,11,0,0,0,232.09,20.79Z"/><path class="b" d="M344.66,82.78,343,80a39.25,39.25,0,0,0-6.94,22,18.27,18.27,0,0,0,2.68,10.35,4.16,4.16,0,0,0,.32.45,6.21,6.21,0,0,0,1.15.64,19.38,19.38,0,0,1-2.06-9.35A39,39,0,0,1,344.66,82.78ZM352.1,20a9.33,9.33,0,0,1,3.82.73,5.65,5.65,0,0,0-.73-1.35A9,9,0,0,0,350,17.91a7.35,7.35,0,0,0-6.5,3.44A15.53,15.53,0,0,0,341.25,30,44.09,44.09,0,0,0,343,42.29a104.8,104.8,0,0,0,3.65,10.26c.26-.38.53-.76.79-1.17-.91-2.45-1.7-4.77-2.35-7a43.74,43.74,0,0,1-1.79-12.33,15.19,15.19,0,0,1,2.26-8.61A7.32,7.32,0,0,1,352.1,20ZM373,122.51c-.62-.62-1.24-1.29-1.83-2,0,0-.06.06-.06.09a30.9,30.9,0,0,1-10.61,8.47,32.17,32.17,0,0,1-14.26,3.06q-12,0-19.65-6.8c.24.27.47.53.74.8q7.85,8.07,21,8.05a32,32,0,0,0,14.27-3.05,30.68,30.68,0,0,0,10.58-8.47A.47.47,0,0,1,373,122.51Zm2.82-78.13a34.58,34.58,0,0,0,3.38-15c0-7.65-2.53-13.73-7.61-18.35-.06,0-.09-.09-.15-.12,3.79,4.35,5.67,9.79,5.67,16.38a34.8,34.8,0,0,1-3.35,15A59.25,59.25,0,0,1,366,54.67c-2.94,3.5-6.74,7.59-11.44,12.29L369.77,93a5.48,5.48,0,0,0,.38-.85L356.66,69.05c4.67-4.71,8.5-8.82,11.44-12.32A57.38,57.38,0,0,0,375.83,44.38ZM393.71,72a72.34,72.34,0,0,1-10.79,36.32.6.6,0,0,1,.08.08,22.47,22.47,0,0,0,2.27,1.53A72.22,72.22,0,0,0,395.83,72Zm.5,43.93v16a21.69,21.69,0,0,1-3.29.32,19.27,19.27,0,0,1-10.41-3.38,41.36,41.36,0,0,1-5.74-4.65,46.61,46.61,0,0,0,7.79,6.74A19.5,19.5,0,0,0,393,134.39a21.81,21.81,0,0,0,3.3-.32V116.22A12.07,12.07,0,0,1,394.21,116Z"/><path class="a" d="M65.87,231.36a10.55,10.55,0,0,0-.71-.91l0,0a21.39,21.39,0,0,0-6.32-5,23.7,23.7,0,0,0-3.53-1.65,32.14,32.14,0,0,0-5.14-1.41q18.35-2.82,18.32-26.79,0-13-5.41-20.38L63,175.1c-.27-.38-.59-.76-.88-1.14l-.09-.09a22.67,22.67,0,0,0-3.18-2.94c-6.44-4.8-15.58-7.21-27.49-7.21H0V290.64H36.67q17.69,0,26.64-9.41t8.76-27.55C72.07,244.09,70,236.65,65.87,231.36ZM23,179.87h4.71c7.41,0,12.7,1.17,15.91,3.53a9.4,9.4,0,0,1,2,2,12.22,12.22,0,0,1,.76,1.23q2,3.71,2,10c0,6.67-1.2,11.53-3.67,14.5s-7,4.47-13.71,4.47H23Zm23,89.63q-3.88,4.85-14.09,4.85H23V231.56h8.15c6.79,0,11.62,1.77,14.5,5.27a2.13,2.13,0,0,1,.23.32,10.47,10.47,0,0,1,.83,1.18Q50,243.58,50,253.5C50,260.91,48.67,266.26,46.05,269.5Z"/><polygon class="a" points="144 274.82 144 290.64 90.39 290.64 90.39 163.72 143.68 163.72 143.68 180.01 113.45 180.01 113.45 216.54 137.27 216.54 137.27 232.65 113.45 232.65 113.45 274.82 144 274.82"/><polygon class="a" points="225.78 163.72 225.11 165.81 224.43 167.9 200.41 242.24 200.41 290.64 178.32 290.64 178.32 242.24 152.62 163.72 174.23 163.72 174.88 165.81 175.53 167.9 189.91 214.01 190.61 211.63 191.29 209.24 204.64 163.72 225.78 163.72"/><path class="a" d="M303.12,173.16c-.11-.17-.26-.32-.38-.5a6.28,6.28,0,0,0-.59-.67c-5.67-6.47-14.85-9.68-27.46-9.68q-19.77,0-28.2,10.35T238,203.22v47.64q0,20.33,8.47,30.93a22.49,22.49,0,0,0,2.73,2.88c.35.33.74.65,1.15,1q8.55,6.75,24.32,6.74,19.41,0,28-10.68t8.53-30.84V203.22C311.18,190,308.47,180,303.12,173.16Zm-15.44,83.16c0,6.18-.88,10.89-2.67,14.12s-5.21,4.85-10.32,4.85a15.68,15.68,0,0,1-6.62-1.23,13.2,13.2,0,0,1-1.29-.74,8.34,8.34,0,0,1-2.59-2.88c-1.8-3.23-2.68-7.94-2.68-14.12V197.89c0-6,.88-10.7,2.68-13.88s5.26-4.79,10.5-4.79c4.82,0,8.17,1.38,10,4.06a3.23,3.23,0,0,1,.44.65,5.94,5.94,0,0,1,.32.67c1.53,3.12,2.26,7.56,2.26,13.29Z"/><polygon class="a" points="397.52 163.72 397.52 290.64 382.17 290.64 355.29 224.95 353.23 219.92 351.14 214.8 351.14 290.64 331.38 290.64 331.38 163.72 347.53 163.72 348.41 165.81 349.32 167.9 378.4 236.12 378.4 163.72 397.52 163.72"/><path class="a" d="M486.44,180.57a23.25,23.25,0,0,0-3.17-5.35,7.88,7.88,0,0,0-.94-1.15,25.12,25.12,0,0,0-8.35-6.2c-5.86-2.76-13.88-4.15-24.12-4.15H419.93V290.64H450.8c9.83,0,17.59-1.5,23.35-4.47a25.74,25.74,0,0,0,12.29-13.38c2.44-6,3.68-13.73,3.68-23.35V203.22Q490.12,189.11,486.44,180.57Zm-19.82,69.64a79.72,79.72,0,0,1-.94,14.17,11.93,11.93,0,0,1-4.38,7.47c-2.29,1.77-6,2.65-11.14,2.65H443V180.16h6.91c5,0,8.71.71,11.06,2.12a9.84,9.84,0,0,1,2.82,2.59,7.37,7.37,0,0,1,.8,1.32,11,11,0,0,1,1,2.62,58.41,58.41,0,0,1,1.08,12.82Z"/><path class="b" d="M45.64,185.43C42.43,183.1,37.17,182,29.82,182H25.11V215.6H27.2V184h4.7c6.42,0,11.24.89,14.5,2.62A12.22,12.22,0,0,0,45.64,185.43Zm.26,51.72c-2.94-2.35-7.14-3.5-12.64-3.5H25.11v40.7H27.2V235.74h8.15c4.76,0,8.55.85,11.38,2.59A10.47,10.47,0,0,0,45.9,237.15Zm18.29-61.08q6.36,7.41,6.36,21.56c0,14.56-5.06,23.29-15.27,26.11a23.7,23.7,0,0,1,3.53,1.65q13.81-4.86,13.82-25.7C72.63,188.84,69.84,181,64.19,176.07Zm3,56.46q6.93,8,6.94,23.21Q74.3,274,65.4,283.32t-26.64,9.41H4.17v2.09H40.82q17.73,0,26.64-9.41t8.79-27.59Q76.25,240.45,67.22,232.53Z"/><path class="b" d="M146.09,279v13.73H94.57v2.09h53.58V279Zm-.32-111.1v14.2H115.54v34.44h2.06V184.19h30.26V167.9Zm-6.41,52.78v14.06H115.54v40.08h2.06v-38h23.82V220.68Z"/><path class="b" d="M178.41,167.9H177l13.64,43.73.68-2.39Zm48.78,0-24.7,76.4v48.43h-20v2.09h22.11V246.39L230,167.9Z"/><path class="b" d="M285.1,183.93a3.23,3.23,0,0,0-.44-.65c-1.92-1.32-4.53-2-7.89-2-5.23,0-8.73,1.62-10.49,4.79s-2.68,7.79-2.68,13.85v58.46c0,6.18.88,10.85,2.68,14.12a4.43,4.43,0,0,0,.5.79,13.2,13.2,0,0,0,1.29.74c-1.59-3.21-2.38-7.74-2.38-13.56V202q0-9.09,2.64-13.85c1.8-3.21,5.3-4.79,10.5-4.79a16,16,0,0,1,6.59,1.2A5.94,5.94,0,0,0,285.1,183.93Zm21.79-7.12a25.58,25.58,0,0,0-2.56-2.65c.18.18.32.38.5.59q8.43,10.32,8.44,30.55v47.64q0,20.21-8.53,30.85t-28,10.68c-11.26,0-19.79-2.59-25.52-7.77q8.55,9.8,27.58,9.82,19.46,0,28-10.64T315.36,255V207.36Q315.36,187.15,306.89,176.81Z"/><path class="b" d="M353.23,219.92v72.81H335.56v2.09h19.73V225Zm-1.53-52h-1.2l27.9,65.43v-2.85Zm47.91,0V292.73H385.49l.85,2.09h15.35V167.9Z"/><path class="b" d="M490.62,184.75a23.9,23.9,0,0,0-6.29-8.68,23.14,23.14,0,0,1,4.2,6.59q3.66,8.52,3.68,22.64v46.23c0,9.59-1.24,17.38-3.68,23.32a25.73,25.73,0,0,1-12.29,13.41q-8.64,4.46-23.35,4.47H424.1v2.09H455q14.73,0,23.35-4.47a25.66,25.66,0,0,0,12.32-13.41q3.66-8.91,3.68-23.35V207.36C494.3,198,493.06,190.42,490.62,184.75Zm-26.88.12a5.23,5.23,0,0,0-.73-.5c-2.36-1.41-6.06-2.12-11.06-2.12H445V274.5h2.09V184.34H454q7,0,10.5,1.85A7.37,7.37,0,0,0,463.74,184.87Z"/></svg>