<svg xmlns="http://www.w3.org/2000/svg" width="299.86mm" height="47.41mm" viewBox="0 0 850 134.39"><defs><style>.a,.b{fill:#fff;}.b{opacity:0.66;}</style></defs><title>title-horizontal</title><path class="a" d="M66.51,18.26a23.15,23.15,0,0,0-3.14-5.35,7.88,7.88,0,0,0-.94-1.15,25.06,25.06,0,0,0-8.36-6.2Q45.3,1.42,29.93,1.41H0V128.33H30.87c9.82,0,17.62-1.5,23.35-4.47a25.62,25.62,0,0,0,12.29-13.38c2.47-6,3.71-13.73,3.71-23.35V40.91Q70.22,26.8,66.51,18.26ZM46.69,87.9a76.94,76.94,0,0,1-.94,14.17,12,12,0,0,1-4.38,7.47q-3.43,2.65-11.11,2.65H23.05V17.85h6.88Q37.48,17.85,41,20a9.26,9.26,0,0,1,2.79,2.56,7.52,7.52,0,0,1,.83,1.32,10.71,10.71,0,0,1,1,2.65,56.6,56.6,0,0,1,1.08,12.82Z"/><path class="a" d="M136.65,47.17v-11A70.56,70.56,0,0,0,136,25.61a12.73,12.73,0,0,0-1.09-3.41,11,11,0,0,0-.85-1.41,9.83,9.83,0,0,0-1.29-1.44c-1.71-1.62-4.42-2.44-8.06-2.44s-6.59.88-8.47,2.59a12.46,12.46,0,0,0-3.68,6.91,58.9,58.9,0,0,0-.85,11.2v55q0,10.82,2.82,15.59a8,8,0,0,0,2.53,2.73,5.74,5.74,0,0,0,1.27.77,14,14,0,0,0,6.38,1.29c3.56,0,6.17-.85,7.91-2.5a11.72,11.72,0,0,0,3.29-6.67,68.74,68.74,0,0,0,.71-11.06V81.31h22.26V91.52c0,12.2-2.59,21.7-7.71,28.43s-14,10.12-26.61,10.12c-10.14,0-18-2.21-23.55-6.56-.3-.24-.62-.47-.91-.74h0A24.23,24.23,0,0,1,96.63,119q-8.25-11-8.24-31.26V42.46q0-20.8,8.15-31.64T124.59,0q18.27,0,26.14,9.06a3.53,3.53,0,0,1,.33.35,8.71,8.71,0,0,1,.64.83q7.2,9.3,7.21,26.28V47.17Z"/><path class="a" d="M273.18,120.54s-.06.06-.06.09c.62.67,1.24,1.29,1.89,1.88C274.39,121.89,273.77,121.22,273.18,120.54Zm2.06,2.09-.06.06c.24.2.44.41.68.61C275.65,123.1,275.45,122.86,275.24,122.63Z"/><path class="a" d="M287.77,110.25a4.41,4.41,0,0,1-.5-.3,22.47,22.47,0,0,1-2.27-1.53.6.6,0,0,0-.08-.08,15.87,15.87,0,0,1-2.09-2.09A72.16,72.16,0,0,0,293.53,72c0-.68.06-1.38.09-2.09s0-1.38,0-2.09H276.74a96.92,96.92,0,0,1-1.82,14.65,52.44,52.44,0,0,1-2.77,9.7,5.48,5.48,0,0,1-.38.85,7,7,0,0,1-.38.83l-16.91-29c4.71-4.7,8.5-8.79,11.44-12.29a59,59,0,0,0,7.76-12.38,34.68,34.68,0,0,0,3.36-15A24.33,24.33,0,0,0,272.27,10a13.18,13.18,0,0,0-1-1.18s0,0-.06-.08c-.56-.65-1.17-1.24-1.79-1.83Q261.82,0,249.78,0c-8.56,0-15.3,2.59-20.15,7.77s-7.26,11.88-7.26,20.11a39,39,0,0,0,2.79,14.5,144.75,144.75,0,0,0,8.47,17.17L235.51,63A73.72,73.72,0,0,0,222.1,80.4a42.22,42.22,0,0,0-4.76,20.2q0,13.32,7.82,21.38a17.27,17.27,0,0,0,1.33,1.24,8.78,8.78,0,0,0,1.11.94q7.36,5.91,18.56,5.91A32.14,32.14,0,0,0,260.42,127a31.09,31.09,0,0,0,10.68-8.56c.67.77,1.32,1.5,2,2.18,0,0,0-.06.06-.09.59.68,1.21,1.35,1.83,2a.47.47,0,0,0,.17.18l.06-.06c.21.23.41.47.62.67a43.4,43.4,0,0,0,4.56,3.53,19.18,19.18,0,0,0,10.41,3.38,20.37,20.37,0,0,0,3.29-.32V112A15,15,0,0,1,287.77,110.25Zm-44.35-91a7.35,7.35,0,0,1,6.5-3.44,8.61,8.61,0,0,1,6.35,2.44,6.93,6.93,0,0,1,.92,1.12,5.65,5.65,0,0,1,.73,1.35,10.29,10.29,0,0,1,.8,4.18,40.52,40.52,0,0,1-3.24,15,55.91,55.91,0,0,1-6,11.5c-.26.41-.53.79-.79,1.17s-.53.71-.8,1A115.93,115.93,0,0,1,243,40.2a44,44,0,0,1-1.79-12.32A15.55,15.55,0,0,1,243.42,19.26Zm3.21,95.13a9.87,9.87,0,0,1-4.41-.91,6.21,6.21,0,0,1-1.15-.64,8.85,8.85,0,0,1-2.41-2.53A18.38,18.38,0,0,1,236,100a39.5,39.5,0,0,1,7.39-22.73L245,80l1.65,2.76,14.08,23.62Q255,114.38,246.63,114.39Z"/><path class="a" d="M421.57,69.05a10.55,10.55,0,0,0-.71-.91l0,0a21.39,21.39,0,0,0-6.32-5A23.7,23.7,0,0,0,411,61.43,32.14,32.14,0,0,0,405.84,60q18.35-2.82,18.32-26.79,0-13-5.41-20.38l-.06-.06c-.27-.38-.59-.76-.88-1.14l-.09-.09a22.67,22.67,0,0,0-3.18-2.94C408.1,3.82,399,1.41,387.05,1.41H355.7V128.33h36.67q17.69,0,26.64-9.41t8.76-27.55C427.77,81.78,425.72,74.34,421.57,69.05ZM378.72,17.56h4.71c7.41,0,12.7,1.17,15.91,3.53a9.4,9.4,0,0,1,2,2,12.22,12.22,0,0,1,.76,1.23q2,3.7,2,10c0,6.67-1.2,11.53-3.67,14.5s-7,4.47-13.71,4.47h-8Zm23,89.63Q397.87,112,387.66,112h-8.94V69.25h8.15c6.79,0,11.62,1.77,14.5,5.27a2.13,2.13,0,0,1,.23.32,10.47,10.47,0,0,1,.83,1.18q3.26,5.25,3.26,15.17C405.69,98.6,404.37,104,401.75,107.19Z"/><polygon class="a" points="499.7 112.51 499.7 128.33 446.09 128.33 446.09 1.41 499.38 1.41 499.38 17.7 469.15 17.7 469.15 54.23 492.97 54.23 492.97 70.34 469.15 70.34 469.15 112.51 499.7 112.51"/><polygon class="a" points="581.48 1.41 580.81 3.5 580.13 5.59 556.11 79.93 556.11 128.33 534.02 128.33 534.02 79.93 508.32 1.41 529.93 1.41 530.58 3.5 531.23 5.59 545.61 51.7 546.31 49.32 546.99 46.93 560.34 1.41 581.48 1.41"/><path class="a" d="M658.82,10.85c-.11-.17-.26-.32-.38-.5a6.28,6.28,0,0,0-.59-.67C652.18,3.21,643,0,630.39,0q-19.77,0-28.2,10.35t-8.47,30.56V88.55q0,20.33,8.47,30.93a22.49,22.49,0,0,0,2.73,2.88c.35.33.74.65,1.15,1q8.55,6.75,24.32,6.74,19.41,0,28-10.68t8.53-30.84V40.91C666.88,27.73,664.17,17.7,658.82,10.85ZM643.38,94c0,6.18-.88,10.89-2.67,14.12S635.5,113,630.39,113a15.68,15.68,0,0,1-6.62-1.23,13.2,13.2,0,0,1-1.29-.74,8.34,8.34,0,0,1-2.59-2.88c-1.8-3.23-2.68-7.94-2.68-14.12V35.58c0-6,.88-10.7,2.68-13.88s5.26-4.79,10.5-4.79c4.82,0,8.17,1.38,10,4.06a3.23,3.23,0,0,1,.44.65,5.94,5.94,0,0,1,.32.67c1.53,3.12,2.26,7.56,2.26,13.29Z"/><polygon class="a" points="753.22 1.41 753.22 128.33 737.87 128.33 710.99 62.64 708.93 57.61 706.84 52.49 706.84 128.33 687.08 128.33 687.08 1.41 703.23 1.41 704.11 3.5 705.02 5.59 734.1 73.81 734.1 1.41 753.22 1.41"/><path class="a" d="M842.14,18.26A23.25,23.25,0,0,0,839,12.91a7.88,7.88,0,0,0-.94-1.15,25.12,25.12,0,0,0-8.35-6.2c-5.86-2.76-13.88-4.15-24.12-4.15H775.63V128.33H806.5c9.83,0,17.59-1.5,23.35-4.47a25.74,25.74,0,0,0,12.29-13.38c2.44-6,3.68-13.73,3.68-23.35V40.91Q845.82,26.8,842.14,18.26ZM822.32,87.9a79.72,79.72,0,0,1-.94,14.17,11.93,11.93,0,0,1-4.38,7.47c-2.29,1.77-6,2.65-11.14,2.65h-7.21V17.85h6.91c5,0,8.71.71,11.06,2.12a9.84,9.84,0,0,1,2.82,2.59,7.37,7.37,0,0,1,.8,1.32,11,11,0,0,1,1,2.62,58.41,58.41,0,0,1,1.08,12.82Z"/><path class="a" d="M275.86,123.3c-.21-.2-.41-.44-.62-.67l-.06.06c.47.5.94,1,1.44,1.47C276.36,123.89,276.12,123.6,275.86,123.3Z"/><path class="b" d="M70.69,22.44a24,24,0,0,0-6.26-8.68,23.72,23.72,0,0,1,4.17,6.59Q72.3,28.87,72.31,43V89.22c0,9.59-1.24,17.38-3.71,23.32A25.61,25.61,0,0,1,56.31,126Q47.7,130.4,33,130.42H4.17v2.09H35.05c9.82,0,17.58-1.5,23.35-4.47a25.61,25.61,0,0,0,12.29-13.41c2.47-5.94,3.68-13.73,3.68-23.35V45.05C74.37,35.67,73.16,28.11,70.69,22.44Zm-26.91.09a7.14,7.14,0,0,0-.7-.47c-2.36-1.41-6-2.12-11.06-2.12H25.14v92.25H27.2V22h6.91c4.61,0,8.14.61,10.5,1.82A7.52,7.52,0,0,0,43.78,22.53Z"/><path class="b" d="M155.23,13.56a17.92,17.92,0,0,0-2.34-2.35c.1.1.17.2.26.29Q161,20.89,161,38.58V49.26H140.82v2.09h22.24V40.67Q163.06,23,155.23,13.56ZM161,85.49V93.6q0,18.32-7.71,28.44t-26.61,10.12q-16.05,0-24.5-7.3,8.38,9.36,26.56,9.35,19,0,26.64-10.08t7.68-28.44V85.49Zm-26.91-64.7A12.8,12.8,0,0,0,126.83,19c-3.77,0-6.59.88-8.47,2.59a12.43,12.43,0,0,0-3.68,6.91,57.8,57.8,0,0,0-.85,11.2v55q0,10.82,2.82,15.59a3.47,3.47,0,0,0,.44.64,5.74,5.74,0,0,0,1.27.77c-1.65-3.21-2.47-8.21-2.47-14.91v-55a57.44,57.44,0,0,1,.88-11.21,12.25,12.25,0,0,1,3.68-6.91c1.88-1.7,4.7-2.58,8.46-2.58a14.3,14.3,0,0,1,6,1.11A11,11,0,0,0,134.09,20.79Z"/><path class="b" d="M246.66,82.78,245,80a39.25,39.25,0,0,0-6.94,22,18.27,18.27,0,0,0,2.68,10.35,4.16,4.16,0,0,0,.32.45,6.21,6.21,0,0,0,1.15.64,19.38,19.38,0,0,1-2.06-9.35A39,39,0,0,1,246.66,82.78ZM254.1,20a9.33,9.33,0,0,1,3.82.73,5.65,5.65,0,0,0-.73-1.35A9,9,0,0,0,252,17.91a7.35,7.35,0,0,0-6.5,3.44A15.53,15.53,0,0,0,243.25,30,44.09,44.09,0,0,0,245,42.29a104.8,104.8,0,0,0,3.65,10.26c.26-.38.53-.76.79-1.17-.91-2.45-1.7-4.77-2.35-7a43.74,43.74,0,0,1-1.79-12.33,15.19,15.19,0,0,1,2.26-8.61A7.32,7.32,0,0,1,254.1,20ZM275,122.51c-.62-.62-1.24-1.29-1.83-2,0,0-.06.06-.06.09a30.9,30.9,0,0,1-10.61,8.47,32.17,32.17,0,0,1-14.26,3.06q-12,0-19.65-6.8c.24.27.47.53.74.8q7.84,8.07,21,8.05a32,32,0,0,0,14.27-3.05,30.68,30.68,0,0,0,10.58-8.47A.47.47,0,0,1,275,122.51Zm2.82-78.13a34.58,34.58,0,0,0,3.38-15c0-7.65-2.53-13.73-7.61-18.35-.06,0-.09-.09-.15-.12,3.79,4.35,5.67,9.79,5.67,16.38a34.8,34.8,0,0,1-3.35,15A59.25,59.25,0,0,1,268,54.67c-2.94,3.5-6.74,7.59-11.44,12.29L271.77,93a5.48,5.48,0,0,0,.38-.85L258.66,69.05c4.67-4.71,8.5-8.82,11.44-12.32A57.38,57.38,0,0,0,277.83,44.38ZM295.71,72a72.34,72.34,0,0,1-10.79,36.32.6.6,0,0,1,.08.08,22.47,22.47,0,0,0,2.27,1.53A72.22,72.22,0,0,0,297.83,72Zm.5,43.93v16a21.69,21.69,0,0,1-3.29.32,19.27,19.27,0,0,1-10.41-3.38,41.36,41.36,0,0,1-5.74-4.65,46.61,46.61,0,0,0,7.79,6.74A19.5,19.5,0,0,0,295,134.39a21.81,21.81,0,0,0,3.3-.32V116.22A12.07,12.07,0,0,1,296.21,116Z"/><path class="b" d="M401.34,23.12c-3.21-2.33-8.47-3.47-15.82-3.47h-4.71V53.29h2.09V21.73h4.7c6.42,0,11.24.89,14.5,2.62A12.22,12.22,0,0,0,401.34,23.12Zm.26,51.72c-2.94-2.35-7.14-3.5-12.64-3.5h-8.15V112h2.09V73.43h8.15c4.76,0,8.55.85,11.38,2.59A10.47,10.47,0,0,0,401.6,74.84Zm18.29-61.08q6.36,7.41,6.36,21.56c0,14.56-5.06,23.29-15.27,26.11a23.7,23.7,0,0,1,3.53,1.65q13.82-4.86,13.82-25.7C428.33,26.53,425.54,18.65,419.89,13.76Zm3,56.46q6.93,8,6.94,23.21Q430,111.64,421.1,121t-26.64,9.41H359.87v2.09h36.65q17.73,0,26.64-9.41T432,95.51Q432,78.14,422.92,70.22Z"/><path class="b" d="M501.79,116.69v13.73H450.27v2.09h53.58V116.69Zm-.32-111.1v14.2H471.24V54.23h2.06V21.88h30.26V5.59Zm-6.41,52.78V72.43H471.24v40.08h2.06v-38h23.82V58.37Z"/><path class="b" d="M534.11,5.59h-1.44l13.64,43.73.68-2.39Zm48.78,0L558.19,82v48.43h-20v2.09h22.11V84.08L585.66,5.59Z"/><path class="b" d="M640.8,21.62a3.23,3.23,0,0,0-.44-.65c-1.92-1.32-4.53-2-7.89-2-5.23,0-8.73,1.62-10.49,4.79s-2.68,7.79-2.68,13.85V96.1c0,6.18.88,10.85,2.68,14.12a4.43,4.43,0,0,0,.5.79,13.2,13.2,0,0,0,1.29.74c-1.59-3.21-2.38-7.74-2.38-13.56V39.73q0-9.09,2.64-13.85c1.8-3.21,5.3-4.79,10.5-4.79a16,16,0,0,1,6.59,1.2A5.94,5.94,0,0,0,640.8,21.62Zm21.79-7.12A25.58,25.58,0,0,0,660,11.85c.18.18.32.38.5.59Q669,22.76,669,43V90.63q0,20.2-8.53,30.85t-28,10.68c-11.26,0-19.79-2.59-25.52-7.77q8.55,9.79,27.58,9.82,19.46,0,28-10.64t8.56-30.88V45.05Q671.06,24.85,662.59,14.5Z"/><path class="b" d="M708.93,57.61v72.81H691.26v2.09H711V62.64Zm-1.53-52h-1.2L734.1,71V68.17Zm47.91,0V130.42H741.19l.85,2.09h15.35V5.59Z"/><path class="b" d="M846.32,22.44A23.9,23.9,0,0,0,840,13.76a23.14,23.14,0,0,1,4.2,6.59q3.66,8.52,3.68,22.64V89.22c0,9.59-1.24,17.38-3.68,23.32A25.73,25.73,0,0,1,831.94,126q-8.64,4.45-23.35,4.47H779.8v2.09h30.85q14.73,0,23.35-4.47a25.66,25.66,0,0,0,12.32-13.41Q850,105.72,850,91.28V45.05C850,35.67,848.76,28.11,846.32,22.44Zm-26.88.12a5.23,5.23,0,0,0-.73-.5c-2.36-1.41-6.06-2.12-11.06-2.12h-6.91v92.25h2.09V22h6.91q7,0,10.5,1.85A7.37,7.37,0,0,0,819.44,22.56Z"/></svg>